<svg width="103" height="34" viewBox="0 0 103 34" fill="none" xmlns="http://www.w3.org/2000/svg">
<path d="M9.5 0.194999C12.83 0.194999 15.47 0.884999 17.42 2.265C19.37 3.615 20.345 5.685 20.345 8.475C20.345 10.335 19.895 11.925 18.995 13.245C18.125 14.535 16.91 15.54 15.35 16.26C13.82 16.95 12.035 17.325 9.995 17.385L9.23 14.55C11.66 14.58 13.82 14.97 15.71 15.72C17.63 16.44 19.145 17.475 20.255 18.825C21.365 20.145 21.92 21.735 21.92 23.595C21.92 25.305 21.605 26.76 20.975 27.96C20.375 29.13 19.535 30.09 18.455 30.84C17.405 31.59 16.22 32.145 14.9 32.505C13.58 32.835 12.2 33 10.76 33H0.5V0.194999H9.5ZM10.31 14.145C11.87 14.145 13.01 13.695 13.73 12.795C14.48 11.865 14.855 10.8 14.855 9.6C14.855 8.13 14.39 7.05 13.46 6.36C12.53 5.67 11.285 5.325 9.725 5.325H5.81V14.145H10.31ZM10.49 28.05C12.17 28.05 13.58 27.705 14.72 27.015C15.86 26.295 16.43 25.17 16.43 23.64C16.43 22.5 16.115 21.63 15.485 21.03C14.885 20.4 14.105 19.95 13.145 19.68C12.185 19.41 11.18 19.275 10.13 19.275H5.81V28.05H10.49ZM36.9437 33.495C34.6937 33.495 32.7737 33.06 31.1837 32.19C29.5937 31.32 28.3637 30.12 27.4937 28.59C26.6537 27.03 26.2337 25.26 26.2337 23.28C26.2337 21.39 26.7137 19.68 27.6737 18.15C28.6637 16.59 29.9687 15.36 31.5887 14.46C33.2387 13.53 35.0537 13.065 37.0337 13.065C39.6737 13.065 41.8487 13.83 43.5587 15.36C45.2687 16.86 46.4087 19.005 46.9787 21.795L31.6337 26.97L30.4637 24.09L42.3437 19.86L41.3087 20.445C40.9787 19.545 40.4537 18.765 39.7337 18.105C39.0137 17.445 37.9937 17.115 36.6737 17.115C35.0837 17.115 33.7937 17.67 32.8037 18.78C31.8137 19.86 31.3187 21.27 31.3187 23.01C31.3187 24.9 31.8587 26.4 32.9387 27.51C34.0487 28.59 35.4137 29.13 37.0337 29.13C37.8137 29.13 38.5637 28.995 39.2837 28.725C40.0037 28.455 40.6787 28.095 41.3087 27.645L43.6487 31.425C42.6587 32.055 41.5637 32.565 40.3637 32.955C39.1937 33.315 38.0537 33.495 36.9437 33.495ZM52.9268 0.194999H72.8618V5.325H58.2368V14.46H70.9718V19.545H58.2368V33H52.9268V0.194999ZM78.1711 13.92H83.3011V33H78.1711V13.92ZM77.9461 7.08C77.9461 6.3 78.2461 5.655 78.8461 5.145C79.4761 4.605 80.1511 4.335 80.8711 4.335C81.5911 4.335 82.2511 4.605 82.8511 5.145C83.4511 5.655 83.7511 6.3 83.7511 7.08C83.7511 7.89 83.4511 8.55 82.8511 9.06C82.2511 9.54 81.5911 9.78 80.8711 9.78C80.1511 9.78 79.4761 9.54 78.8461 9.06C78.2461 8.55 77.9461 7.89 77.9461 7.08ZM91.9681 5.55H97.1431V13.92H102.093V17.925H97.1431V33H91.9681V17.925H88.7281V13.92H91.9681V5.55Z" fill="#5F6F52"/>
</svg>
